<?xml version="1.0" encoding="UTF-8" standalone="no"?>
<svg
   xmlns:dc="http://purl.org/dc/elements/1.1/"
   xmlns:cc="http://creativecommons.org/ns#"
   xmlns:rdf="http://www.w3.org/1999/02/22-rdf-syntax-ns#"
   xmlns:svg="http://www.w3.org/2000/svg"
   xmlns="http://www.w3.org/2000/svg"
   xmlns:sodipodi="http://sodipodi.sourceforge.net/DTD/sodipodi-0.dtd"
   xmlns:inkscape="http://www.inkscape.org/namespaces/inkscape"
   width="2048"
   height="2048"
   viewBox="0 0 541.86662 541.86667"
   version="1.1"
   id="svg8"
   inkscape:version="1.0.2 (e86c870879, 2021-01-15)"
   sodipodi:docname="favicon-selarakta.svg">
  <defs
     id="defs2">
    <inkscape:path-effect
       effect="bspline"
       id="path-effect955"
       is_visible="true"
       lpeversion="1"
       weight="33.333333"
       steps="2"
       helper_size="0"
       apply_no_weight="true"
       apply_with_weight="true"
       only_selected="false" />
    <inkscape:path-effect
       effect="bspline"
       id="path-effect122"
       is_visible="true"
       lpeversion="1"
       weight="33.333333"
       steps="2"
       helper_size="0"
       apply_no_weight="true"
       apply_with_weight="true"
       only_selected="false" />
    <inkscape:path-effect
       effect="bspline"
       id="path-effect54"
       is_visible="true"
       lpeversion="1"
       weight="33.333333"
       steps="2"
       helper_size="0"
       apply_no_weight="true"
       apply_with_weight="true"
       only_selected="false" />
    <inkscape:path-effect
       effect="bspline"
       id="path-effect50"
       is_visible="true"
       lpeversion="1"
       weight="33.333333"
       steps="2"
       helper_size="0"
       apply_no_weight="true"
       apply_with_weight="true"
       only_selected="false" />
    <inkscape:path-effect
       effect="bspline"
       id="path-effect46"
       is_visible="true"
       lpeversion="1"
       weight="33.333333"
       steps="2"
       helper_size="0"
       apply_no_weight="true"
       apply_with_weight="true"
       only_selected="false" />
    <inkscape:path-effect
       effect="bspline"
       id="path-effect42"
       is_visible="true"
       lpeversion="1"
       weight="33.333333"
       steps="2"
       helper_size="0"
       apply_no_weight="true"
       apply_with_weight="true"
       only_selected="false" />
    <inkscape:path-effect
       effect="bspline"
       id="path-effect38"
       is_visible="true"
       lpeversion="1"
       weight="33.333333"
       steps="2"
       helper_size="0"
       apply_no_weight="true"
       apply_with_weight="true"
       only_selected="false" />
    <inkscape:path-effect
       effect="bspline"
       id="path-effect34"
       is_visible="true"
       lpeversion="1"
       weight="33.333333"
       steps="2"
       helper_size="0"
       apply_no_weight="true"
       apply_with_weight="true"
       only_selected="false" />
    <inkscape:path-effect
       effect="bspline"
       id="path-effect30"
       is_visible="true"
       lpeversion="1"
       weight="33.333333"
       steps="2"
       helper_size="0"
       apply_no_weight="true"
       apply_with_weight="true"
       only_selected="false" />
    <inkscape:path-effect
       effect="bspline"
       id="path-effect26"
       is_visible="true"
       lpeversion="1"
       weight="33.333333"
       steps="2"
       helper_size="0"
       apply_no_weight="true"
       apply_with_weight="true"
       only_selected="false" />
  </defs>
  <sodipodi:namedview
     id="base"
     pagecolor="#ffffff"
     bordercolor="#666666"
     borderopacity="1.0"
     inkscape:pageopacity="0.0"
     inkscape:pageshadow="2"
     inkscape:zoom="0.19"
     inkscape:cx="1556.0759"
     inkscape:cy="1066.0159"
     inkscape:document-units="mm"
     inkscape:current-layer="layer1"
     inkscape:document-rotation="0"
     showgrid="false"
     inkscape:window-width="1366"
     inkscape:window-height="707"
     inkscape:window-x="0"
     inkscape:window-y="31"
     inkscape:window-maximized="1"
     units="px"
     height="2048px" />
  <metadata
     id="metadata5">
    <rdf:RDF>
      <cc:Work
         rdf:about="">
        <dc:format>image/svg+xml</dc:format>
        <dc:type
           rdf:resource="http://purl.org/dc/dcmitype/StillImage" />
        <dc:title></dc:title>
      </cc:Work>
    </rdf:RDF>
  </metadata>
  <g
     inkscape:label="Layer 1"
     inkscape:groupmode="layer"
     id="layer1">
    <g
       id="g1014">
      <rect
         style="fill:#2e3440;fill-opacity:1;stroke:#2e3440;stroke-width:0.918843;stroke-opacity:1"
         id="rect25"
         width="540.94781"
         height="540.94781"
         x="0.45942587"
         y="0.45942587" />
      <g
         id="g986"
         transform="matrix(4.6777759,0,0,4.6777759,-1186.311,-144.84334)">
        <path
           style="fill:#bf616a;fill-opacity:1;stroke:#bf616a;stroke-width:0.0539949px;stroke-linecap:butt;stroke-linejoin:miter;stroke-opacity:1"
           d="m 289.70018,93.285078 c 0.89732,-1.174404 2.1979,-2.560641 3.65894,-3.996831 1.46104,-1.436189 3.08248,-2.922275 4.14082,-3.949142 1.05835,-1.026866 1.55356,-1.594463 2.32399,-2.254329 0.77042,-0.659866 1.81598,-1.411924 2.65213,-2.202061 0.83615,-0.790136 1.46286,-1.618307 2.31007,-2.415384 0.84722,-0.797078 1.91487,-1.563008 2.82517,-2.136955 0.9103,-0.573947 1.66319,-0.955887 2.56677,-0.874337 0.90359,0.08155 1.95778,0.626526 3.27008,1.587729 1.3123,0.961203 2.88265,2.338555 4.06534,3.414616 1.18269,1.076062 1.97765,1.850763 3.0734,3.001039 1.09575,1.150277 2.49221,2.676044 3.58333,3.743228 1.09113,1.067185 1.87686,1.675744 2.76686,2.364017 0.89001,0.688273 1.88424,1.456217 2.78286,2.498206 0.89863,1.041989 1.70162,2.357941 2.29048,3.267296 0.58886,0.909354 0.96354,1.41207 1.09125,2.036894 0.12771,0.624823 0.008,1.371724 -0.29481,1.971746 -0.3033,0.600023 -0.79067,1.05317 -2.3131,2.34776 -1.52243,1.2946 -4.0798,3.43055 -6.09723,5.27969 -2.01742,1.84915 -3.49478,3.41138 -4.68324,4.69475 -1.18846,1.28336 -2.08796,2.28779 -2.67942,3.02437 -0.59146,0.73658 -0.87486,1.20527 -1.53834,1.95929 -0.66348,0.75401 -1.70702,1.79332 -2.84451,2.49217 -1.13749,0.69886 -2.3689,1.05723 -3.65373,0.79097 -1.28484,-0.26626 -2.62304,-1.15716 -3.85033,-2.31427 -1.22729,-1.1571 -2.34359,-2.58034 -3.5883,-4.21282 -1.24471,-1.63248 -2.61774,-3.4741 -3.94311,-4.958 -1.32536,-1.48389 -2.60299,-2.60997 -3.88177,-3.89322 -1.27878,-1.28325 -2.55863,-2.7236 -3.54532,-3.88124 -0.98669,-1.157643 -1.68016,-2.032517 -2.02692,-2.69967 -0.34676,-0.667152 -0.34676,-1.126556 -0.0997,-1.837564 0.24703,-0.711008 0.74106,-1.673543 1.63838,-2.847948 z"
           id="path28"
           inkscape:path-effect="#path-effect30"
           inkscape:original-d="m 289.29692,93.496909 c 1.30063,-1.386187 2.60121,-2.772424 3.90174,-4.15871 1.62155,-1.486085 3.24299,-2.97217 4.8644,-4.458335 0.49529,-0.567575 0.9905,-1.13517 1.48567,-1.702845 1.04567,-0.752043 2.09122,-1.504106 3.13676,-2.256248 0.62678,-0.82815 1.25349,-1.65632 1.88016,-2.484559 1.06774,-0.765898 2.1354,-1.531823 3.20301,-2.297819 0.75297,-0.381899 1.50586,-0.763836 2.2587,-1.145837 1.05429,0.545052 2.10848,1.090028 3.16263,1.63496 1.57046,1.377458 3.1408,2.754814 4.71113,4.13214 0.79505,0.774797 1.59002,1.549495 2.38496,2.324162 1.39656,1.525883 2.79302,3.051646 4.18945,4.57739 0.78581,0.608639 1.57154,1.217198 2.35724,1.825717 0.99431,0.76803 1.98854,1.535969 2.98273,2.303869 0.80308,1.31606 1.60608,2.63201 2.40903,3.94793 0.37476,0.502791 0.74944,1.005511 1.12408,1.508182 -0.11918,0.746989 -0.2384,1.493889 -0.35766,2.240759 -0.48734,0.453225 -0.97471,0.906365 -1.46214,1.359465 -2.55743,2.1361 -5.1148,4.27205 -7.67229,6.40799 -1.47736,1.56234 -2.95472,3.12457 -4.43215,4.68678 -0.89949,1.00452 -1.79898,2.00895 -2.69855,3.01334 -0.28335,0.46876 -0.56675,0.93745 -0.8502,1.4061 -1.04352,1.0394 -2.08706,2.0787 -3.13067,3.11798 -1.2314,0.35844 -2.46281,0.71682 -3.6943,1.07514 -1.33821,-0.89089 -2.67641,-1.7818 -4.01469,-2.67278 -1.11629,-1.42324 -2.23259,-2.84648 -3.34896,-4.26981 -1.37304,-1.84164 -2.74607,-3.68326 -4.11919,-5.52497 -1.27762,-1.12607 -2.55525,-2.25214 -3.83295,-3.37829 -1.27985,-1.44036 -2.5597,-2.88072 -3.83964,-4.32115 -0.69344,-0.874848 -1.38691,-1.749723 -2.08044,-2.624657 4e-5,-0.459365 4e-5,-0.918769 0,-1.378233 0.4941,-0.962524 0.98814,-1.925058 1.48214,-2.887661 z" />
        <path
           style="fill:#bf616a;fill-opacity:1;stroke:#bf616a;stroke-width:0.0539949px;stroke-linecap:butt;stroke-linejoin:miter;stroke-opacity:1"
           d="m 277.47641,71.713023 c 0.6573,-0.914552 1.8969,-2.088479 2.95208,-3.058969 1.05518,-0.970489 1.92592,-1.737515 2.6148,-2.202071 0.68888,-0.464556 1.19585,-0.626619 1.92995,-0.445506 0.7341,0.181113 1.69526,0.705347 2.5188,1.640528 0.82353,0.935182 1.50943,2.28122 2.27779,3.750281 0.76837,1.469061 1.61915,3.061062 2.32064,4.443517 0.70149,1.382455 1.25365,2.55529 1.50655,3.434538 0.25289,0.879247 0.20653,1.464869 -0.1108,1.845028 -0.31734,0.38016 -0.90569,0.554902 -1.79915,0.510335 -0.89345,-0.04457 -2.092,-0.308459 -3.30816,-0.73916 -1.21616,-0.430702 -2.44986,-1.028201 -3.50769,-1.58172 -1.05782,-0.553519 -1.9397,-1.063026 -2.91977,-1.625513 -0.98006,-0.562487 -2.05825,-1.177917 -2.7992,-1.630074 -0.74094,-0.452156 -1.1446,-0.741022 -1.50224,-1.066539 -0.35764,-0.325517 -0.66922,-0.687679 -0.78754,-1.196345 -0.11833,-0.508666 -0.0433,-1.163778 0.61394,-2.07833 z"
           id="path32"
           inkscape:path-effect="#path-effect34"
           inkscape:original-d="m 276.89411,71.972398 c 1.23965,-1.173872 2.47925,-2.347798 3.71879,-3.521777 0.87082,-0.767 1.74156,-1.534022 2.61225,-2.301114 0.50704,-0.162016 1.01401,-0.32408 1.52094,-0.486201 0.96124,0.524305 1.9224,1.048537 2.88352,1.572724 0.68598,1.346147 1.37188,2.692185 2.05774,4.038196 0.85086,1.592114 1.70165,3.18411 2.55239,4.776085 0.55224,1.172936 1.1044,2.345774 1.65653,3.518579 -0.0464,0.585695 -0.0927,1.171321 -0.13907,1.756906 -0.5883,0.1748 -1.17665,0.349539 -1.76506,0.524229 -1.19853,-0.263854 -2.39708,-0.527737 -3.5957,-0.791691 -1.2337,-0.597466 -2.4674,-1.194971 -3.70119,-1.792537 -0.88186,-0.509478 -1.76374,-1.018986 -2.6457,-1.528558 -1.07817,-0.6154 -2.15636,-1.230827 -3.23462,-1.846322 -0.40363,-0.288825 -0.80729,-0.577693 -1.21102,-0.86662 -0.31153,-0.362123 -0.62311,-0.724283 -0.93475,-1.086506 0.0751,-0.65509 0.15002,-1.310209 0.22495,-1.965393 z" />
        <path
           style="fill:#bf616a;fill-opacity:1;stroke:#bf616a;stroke-width:0.0539949px;stroke-linecap:butt;stroke-linejoin:miter;stroke-opacity:1"
           d="m 337.74768,66.169566 c 0.712,0.689807 2.13596,2.069361 3.16517,3.095335 1.02922,1.025974 1.66368,1.698343 1.98206,2.387738 0.31838,0.689394 0.32072,1.395767 -0.009,2.017791 -0.32957,0.622025 -0.99103,1.159726 -2.08505,1.805657 -1.09402,0.645931 -2.62054,1.400053 -4.26082,2.377347 -1.64027,0.977294 -3.3942,2.177701 -4.82691,2.858015 -1.4327,0.680315 -2.54414,0.840509 -3.09989,0.540469 -0.55576,-0.30004 -0.55576,-1.060345 -0.33169,-2.019309 0.22406,-0.958964 0.67219,-2.116487 1.23867,-3.412389 0.56648,-1.295902 1.25129,-2.730094 2.02812,-4.154353 0.77684,-1.424259 1.64565,-2.838494 2.22061,-3.82246 0.57495,-0.983967 0.85601,-1.537625 1.35143,-1.859862 0.49542,-0.322237 1.20511,-0.413013 1.55995,-0.4584 0.35483,-0.04539 0.3552,-0.04539 1.06721,0.644421 z"
           id="path36"
           inkscape:path-effect="#path-effect38"
           inkscape:original-d="m 337.03567,65.479758 c 1.42402,1.37961 2.84797,2.759165 4.27186,4.138667 0.63454,0.67245 1.269,1.344821 1.90343,2.017151 0.003,0.706455 0.005,1.412829 0.007,2.119163 -0.66143,0.537777 -1.32289,1.07548 -1.98443,1.61314 -1.52652,0.754206 -3.05304,1.508328 -4.57965,2.262412 -1.75393,1.2005 -3.50786,2.400904 -5.26187,3.601278 -1.11143,0.160258 -2.22287,0.320456 -3.33439,0.480594 5e-5,-0.760285 5e-5,-1.52059 0,-2.280975 0.4482,-1.157516 0.89632,-2.315041 1.3444,-3.472643 0.68489,-1.434195 1.3697,-2.868386 2.05446,-4.302661 0.8689,-1.414239 1.73771,-2.828477 2.6065,-4.242795 0.28111,-0.553623 0.56218,-1.107277 0.8432,-1.660995 0.70977,-0.09073 1.41946,-0.181504 2.12912,-0.272336 z" />
        <path
           style="fill:#bf616a;fill-opacity:1;stroke:#bf616a;stroke-width:0.0539949px;stroke-linecap:butt;stroke-linejoin:miter;stroke-opacity:1"
           d="m 332.83545,113.24398 c 1.55693,0.83702 3.95024,2.23125 5.87855,3.40392 1.92831,1.17267 3.39154,2.12373 4.46499,2.87838 1.07345,0.75464 1.75707,1.31281 2.29836,1.98203 0.54129,0.66922 0.94027,1.44943 0.66952,2.35186 -0.27075,0.90243 -1.21118,1.92708 -2.06559,2.70672 -0.85441,0.77965 -1.62276,1.31426 -2.41518,1.94373 -0.79242,0.62946 -1.60884,1.35372 -2.49238,1.4516 -0.88354,0.0979 -1.83421,-0.43065 -2.5992,-1.23334 -0.76499,-0.80268 -1.34423,-1.87949 -2.0826,-3.05951 -0.73837,-1.18003 -1.63585,-2.46321 -2.43287,-3.65481 -0.79702,-1.19161 -1.49355,-2.29158 -2.00971,-3.31633 -0.51616,-1.02475 -0.85191,-1.97423 -1.13903,-2.63996 -0.28712,-0.66572 -0.52562,-1.04766 -0.6449,-1.4665 -0.11927,-0.41884 -0.11927,-0.87455 0.16261,-1.33812 0.28189,-0.46357 0.84562,-0.93492 1.4878,-1.03069 0.64218,-0.0958 1.3627,0.18401 2.91963,1.02102 z"
           id="path40"
           inkscape:path-effect="#path-effect42"
           inkscape:original-d="m 331.999,112.68673 c 2.39337,1.39429 4.78668,2.78852 7.17995,4.1827 1.46335,0.95116 2.92659,1.90221 4.38979,2.85324 0.6837,0.55825 1.36731,1.11643 2.05087,1.67455 0.39905,0.7803 0.79804,1.56051 1.19697,2.34069 -0.9404,1.02474 -1.88083,2.04939 -2.82132,3.07399 -0.76835,0.53469 -1.5367,1.06931 -2.30512,1.60389 -0.81641,0.72434 -1.63283,1.44861 -2.44933,2.17283 -0.95064,-0.5285 -1.90131,-1.05704 -2.85206,-1.58564 -0.5792,-1.07679 -1.15844,-2.1536 -1.73774,-3.23047 -0.89746,-1.28317 -1.79493,-2.56636 -2.69247,-3.84961 -0.69649,-1.09996 -1.39302,-2.19993 -2.08962,-3.29996 -0.3357,-0.94947 -0.67146,-1.89895 -1.00726,-2.8485 -0.23846,-0.3819 -0.47696,-0.76384 -0.71552,-1.14584 6e-5,-0.45567 6e-5,-0.91138 0,-1.36714 0.56381,-0.47133 1.12754,-0.94268 1.69123,-1.41409 0.72062,0.27984 1.44114,0.55963 2.16163,0.83936 z" />
        <path
           style="fill:#bf616a;fill-opacity:1;stroke:#bf616a;stroke-width:0.0539949px;stroke-linecap:butt;stroke-linejoin:miter;stroke-opacity:1"
           d="m 279.20967,127.64575 c 0.84201,0.78545 2.526,2.35628 3.85517,3.40024 1.32917,1.04396 2.30351,1.56104 3.11144,1.67921 0.80794,0.11816 1.44946,-0.16253 2.13671,-1.04565 0.68724,-0.88312 1.42019,-2.36861 2.4634,-4.22488 1.04321,-1.85627 2.39661,-4.08318 3.2175,-5.69386 0.8209,-1.61069 1.10925,-2.6051 1.2555,-3.58218 0.14625,-0.97709 0.15039,-1.93682 -0.12229,-2.54759 -0.27268,-0.61076 -0.82222,-0.87252 -1.37443,-0.8782 -0.55222,-0.006 -1.10704,0.24475 -2.19349,0.73543 -1.08645,0.49068 -2.70446,1.22158 -4.0349,1.92849 -1.33043,0.70691 -2.37319,1.38979 -3.68094,2.31812 -1.30775,0.92833 -2.88038,2.10204 -3.918,2.90225 -1.03762,0.8002 -1.54014,1.22685 -1.71057,1.8685 -0.17042,0.64165 -0.009,1.49819 0.0721,1.92643 0.0808,0.42825 0.0808,0.42825 0.9228,1.21369 z"
           id="path48"
           inkscape:path-effect="#path-effect50"
           inkscape:original-d="m 278.36765,126.86031 c 1.68403,1.57089 3.36801,3.14173 5.05194,4.71251 0.97441,0.51715 1.94875,1.03423 2.92304,1.55127 0.64161,-0.28067 1.28314,-0.56136 1.92463,-0.84212 0.73304,-1.48551 1.46598,-2.971 2.19889,-4.45658 1.35352,-2.22695 2.70691,-4.45386 4.06029,-6.68087 0.28842,-0.99438 0.57677,-1.98879 0.86507,-2.98328 0.004,-0.9597 0.008,-1.91943 0.0124,-2.87923 -0.5495,-0.26171 -1.09904,-0.52346 -1.64864,-0.78528 -0.55479,0.25049 -1.10961,0.50092 -1.66448,0.7513 -1.61803,0.73098 -3.23605,1.46187 -4.85415,2.19274 -1.04275,0.68296 -2.08551,1.36584 -3.12835,2.04868 -1.57265,1.17382 -3.14529,2.34753 -4.71803,3.52123 -0.50249,0.42671 -1.00502,0.85335 -1.50761,1.27996 0.16174,0.85663 0.32343,1.71317 0.48506,2.56967 z" />
        <path
           style="fill:#bf616a;fill-opacity:1;stroke:#bf616a;stroke-width:0.0539949px;stroke-linecap:butt;stroke-linejoin:miter;stroke-opacity:1"
           d="m 302.56866,47.314002 c 0.47866,-0.798732 1.32649,-1.894124 2.08525,-2.830351 0.75876,-0.936227 1.42841,-1.713248 2.06283,-2.379337 0.63441,-0.666088 1.23353,-1.221195 1.85334,-1.438502 0.61981,-0.217308 1.26022,-0.09682 2.16391,0.489749 0.90368,0.586571 2.07062,1.639154 2.89379,2.605219 0.82317,0.966064 1.30255,1.845542 1.63738,2.44374 0.33483,0.598198 0.5251,0.915093 0.64472,1.844018 0.11962,0.928925 0.16863,2.469836 0.28034,3.682033 0.11171,1.212197 0.28611,2.095615 0.32148,2.701536 0.0354,0.605921 -0.0683,0.934345 -0.14807,1.2981 -0.0798,0.363756 -0.13582,0.762819 -1.07233,1.949839 -0.93652,1.18702 -2.75348,3.16196 -4.16607,4.028726 -1.41258,0.866766 -2.42077,0.625312 -3.27165,0.219898 -0.85088,-0.405415 -1.54439,-0.974799 -2.44757,-2.058299 -0.90318,-1.083501 -2.01598,-2.681066 -2.6401,-4.037573 -0.62412,-1.356508 -0.75951,-2.471888 -0.82721,-3.551048 -0.0677,-1.07916 -0.0677,-2.122029 -0.0129,-2.894506 0.0547,-0.772476 0.16424,-1.274509 0.64291,-2.073242 z"
           id="path52"
           inkscape:path-effect="#path-effect54"
           inkscape:original-d="m 302.1995,47.610652 c 0.84788,-1.095336 1.69571,-2.190726 2.54348,-3.286171 0.66975,-0.777003 1.3394,-1.554029 2.00902,-2.331124 0.5992,-0.555075 1.19832,-1.110183 1.7974,-1.665353 0.64048,0.120541 1.28089,0.241025 1.92124,0.361458 1.16703,1.052674 2.33397,2.105255 3.50087,3.157801 0.47946,0.87957 0.95884,1.759049 1.43818,2.638491 0.19032,0.316955 0.38059,0.633845 0.57079,0.950687 0.049,1.541023 0.0981,3.081931 0.14704,4.622816 0.17445,0.883504 0.34885,1.76692 0.52319,2.650298 -0.10358,0.328493 -0.2072,0.656919 -0.31089,0.985297 -0.0559,0.399126 -0.11195,0.798182 -0.168,1.197192 -1.81698,1.975074 -3.63394,3.950017 -5.451,5.924944 -1.00818,-0.241411 -2.01637,-0.482867 -3.02465,-0.724382 -0.69347,-0.569348 -1.38698,-1.138729 -2.08055,-1.708173 -1.11278,-1.597571 -2.22558,-3.195132 -3.33844,-4.792779 -0.13534,-1.11537 -0.27073,-2.23075 -0.40618,-3.346207 6e-5,-1.042857 6e-5,-2.085726 0,-3.128669 0.10955,-0.501998 0.21905,-1.00403 0.3285,-1.506126 z" />
        <path
           style="fill:#bf616a;fill-opacity:1;stroke:#bf616a;stroke-width:0.263707px;stroke-linecap:butt;stroke-linejoin:miter;stroke-opacity:1"
           d="m 305.6139,125.01459 c 0.35341,-0.29349 0.90953,-0.46108 1.46442,-0.52769 0.5549,-0.0666 1.10843,-0.0323 1.74929,-0.10326 0.64086,-0.0709 1.36908,-0.24704 2.19839,-0.28146 0.82931,-0.0344 1.75954,0.0728 2.30318,0.43649 0.54364,0.3637 0.70088,0.98361 0.6491,1.91413 -0.0518,0.93053 -0.31243,2.17172 -0.52618,3.11733 -0.21374,0.94561 -0.38056,1.59561 -0.54742,2.32669 -0.16687,0.73109 -0.33378,1.5432 -0.68807,2.37623 -0.3543,0.83303 -0.89595,1.68705 -1.26135,2.20657 -0.36539,0.51952 -0.55455,0.70458 -0.7941,0.58927 -0.23956,-0.11532 -0.52971,-0.53128 -0.92909,-0.98429 -0.39938,-0.45302 -0.90804,-0.943 -1.28857,-1.4796 -0.38053,-0.53661 -0.6328,-1.11987 -1.02403,-2.04437 -0.39123,-0.92451 -0.92138,-2.19021 -1.27121,-3.31611 -0.34982,-1.12589 -0.51922,-2.11188 -0.52873,-2.81456 -0.01,-0.70268 0.14096,-1.12187 0.49437,-1.41537 z"
           id="path953"
           inkscape:path-effect="#path-effect955"
           inkscape:original-d="m 305.41102,124.88873 c 0.55638,-0.16732 1.1125,-0.33491 1.66836,-0.50275 0.55382,0.0346 1.10735,0.0689 1.66064,0.10287 0.72852,-0.17585 1.45675,-0.35194 2.18473,-0.52831 0.93053,0.10747 1.86076,0.21466 2.79075,0.32159 0.15751,0.62019 0.31474,1.2401 0.47172,1.85975 -0.26041,1.24151 -0.52107,2.4827 -0.78199,3.72365 -0.16656,0.65029 -0.33338,1.30029 -0.50046,1.95003 -0.16666,0.81241 -0.33357,1.62452 -0.50074,2.43639 -0.54142,0.85432 -1.08307,1.70834 -1.625,2.56213 -0.18891,0.18532 -0.37806,0.37038 -0.56748,0.55518 -0.2899,-0.41572 -0.58004,-0.83169 -0.87046,-1.24793 -0.50841,-0.48974 -1.01706,-0.97973 -1.52599,-1.46999 -0.25201,-0.583 -0.50428,-1.16626 -0.75681,-1.74978 -0.52991,-1.2655 -1.06007,-2.5312 -1.59051,-3.79721 -0.16912,-0.98576 -0.33852,-1.97175 -0.50818,-2.95802 0.15074,-0.41894 0.30121,-0.83813 0.45142,-1.2576 z" />
      </g>
    </g>
  </g>
</svg>
